<svg width="1523" height="290" viewBox="0 0 1523 290" fill="none" xmlns="http://www.w3.org/2000/svg">
<path fill-rule="evenodd" clip-rule="evenodd" d="M124.271 0L248 72.1728V219.532L124.271 290L0 219.547V72.1578L124.271 0ZM22.6861 98.028L76.8233 128.223V168.32L112.915 186.389V257.458L22.6861 206.305V98.028ZM135.601 257.414L225.314 206.32V97.9653L170.661 128.245V168.229L135.601 186.297V257.414ZM124.183 166.634L147.975 154.373V127.884L124.172 113.163L99.5094 127.98V154.281L124.183 166.634ZM87.9555 108.431L124.343 86.5704L159.633 108.395L213.687 78.4463L124.245 26.2733L34.296 78.502L87.9555 108.431Z" fill="white"/>
<path d="M432.597 206.222V85.0667H390V60H502.756V85.0667H460.159V206.222H432.597Z" fill="white"/>
<path d="M522.361 206.222V60H548.671V115.356H552.43C553.543 113.127 555.283 110.899 557.65 108.671C560.016 106.443 563.149 104.633 567.046 103.24C571.083 101.708 576.164 100.942 582.289 100.942C590.363 100.942 597.393 102.822 603.379 106.582C609.504 110.203 614.237 115.286 617.578 121.831C620.919 128.237 622.589 135.757 622.589 144.391V206.222H596.279V146.48C596.279 138.681 594.331 132.833 590.433 128.933C586.674 125.034 581.245 123.084 574.146 123.084C566.072 123.084 559.808 125.8 555.353 131.231C550.898 136.523 548.671 143.973 548.671 153.582V206.222H522.361Z" fill="white"/>
<path d="M698.222 209.147C687.921 209.147 678.803 206.988 670.868 202.671C663.072 198.215 656.947 192.018 652.493 184.08C648.177 176.003 646.02 166.533 646.02 155.671V153.164C646.02 142.302 648.177 132.902 652.493 124.964C656.808 116.887 662.864 110.69 670.659 106.373C678.455 101.917 687.503 99.6889 697.804 99.6889C707.966 99.6889 716.806 101.987 724.323 106.582C731.84 111.039 737.686 117.305 741.863 125.382C746.039 133.32 748.127 142.581 748.127 153.164V162.147H672.747C673.026 169.249 675.67 175.028 680.682 179.484C685.693 183.941 691.818 186.169 699.057 186.169C706.435 186.169 711.864 184.567 715.344 181.364C718.824 178.161 721.469 174.61 723.279 170.711L744.786 181.991C742.837 185.612 739.983 189.581 736.225 193.898C732.605 198.076 727.733 201.696 721.608 204.76C715.483 207.684 707.688 209.147 698.222 209.147ZM672.956 142.511H721.399C720.843 136.523 718.406 131.719 714.091 128.098C709.915 124.477 704.416 122.667 697.595 122.667C690.496 122.667 684.858 124.477 680.682 128.098C676.506 131.719 673.93 136.523 672.956 142.511Z" fill="white"/>
<path d="M823.727 206.222V60H917.69V85.0667H851.289V119.951H911.844V145.018H851.289V181.156H918.943V206.222H823.727Z" fill="white"/>
<path d="M983.196 209.147C969.693 209.147 958.626 206.222 949.995 200.373C941.364 194.524 936.144 186.169 934.335 175.307L958.556 169.04C959.531 173.914 961.132 177.744 963.359 180.529C965.725 183.314 968.579 185.333 971.92 186.587C975.4 187.701 979.159 188.258 983.196 188.258C989.321 188.258 993.845 187.213 996.768 185.124C999.691 182.896 1001.15 180.181 1001.15 176.978C1001.15 173.775 999.761 171.338 996.977 169.667C994.193 167.856 989.738 166.394 983.613 165.28L977.767 164.236C970.528 162.843 963.916 160.963 957.93 158.596C951.944 156.089 947.141 152.677 943.522 148.36C939.903 144.043 938.093 138.473 938.093 131.649C938.093 121.344 941.852 113.476 949.369 108.044C956.886 102.474 966.769 99.6889 979.019 99.6889C990.573 99.6889 1000.18 102.265 1007.83 107.418C1015.49 112.57 1020.5 119.324 1022.87 127.68L998.439 135.2C997.325 129.908 995.028 126.148 991.548 123.92C988.207 121.692 984.031 120.578 979.019 120.578C974.008 120.578 970.18 121.483 967.535 123.293C964.89 124.964 963.568 127.332 963.568 130.396C963.568 133.738 964.96 136.244 967.744 137.916C970.528 139.447 974.286 140.631 979.019 141.467L984.866 142.511C992.662 143.904 999.691 145.784 1005.96 148.151C1012.36 150.379 1017.37 153.652 1020.99 157.969C1024.75 162.147 1026.63 167.856 1026.63 175.098C1026.63 185.96 1022.66 194.385 1014.73 200.373C1006.93 206.222 996.42 209.147 983.196 209.147Z" fill="white"/>
<path d="M1098.34 209.147C1088.31 209.147 1079.19 207.058 1070.98 202.88C1062.91 198.702 1056.5 192.644 1051.77 184.707C1047.04 176.769 1044.67 167.16 1044.67 155.88V152.956C1044.67 141.676 1047.04 132.067 1051.77 124.129C1056.5 116.191 1062.91 110.133 1070.98 105.956C1079.19 101.778 1088.31 99.6889 1098.34 99.6889C1108.22 99.6889 1116.71 101.43 1123.81 104.911C1130.91 108.393 1136.62 113.197 1140.93 119.324C1145.39 125.313 1148.31 132.136 1149.7 139.796L1124.23 145.227C1123.67 141.049 1122.42 137.289 1120.47 133.947C1118.52 130.604 1115.74 127.959 1112.12 126.009C1108.64 124.059 1104.25 123.084 1098.96 123.084C1093.67 123.084 1088.87 124.268 1084.55 126.636C1080.38 128.864 1077.04 132.276 1074.53 136.871C1072.16 141.327 1070.98 146.828 1070.98 153.373V155.462C1070.98 162.007 1072.16 167.578 1074.53 172.173C1077.04 176.63 1080.38 180.041 1084.55 182.409C1088.87 184.637 1093.67 185.751 1098.96 185.751C1106.9 185.751 1112.88 183.732 1116.92 179.693C1121.1 175.516 1123.74 170.084 1124.85 163.4L1150.33 169.458C1148.52 176.839 1145.39 183.593 1140.93 189.72C1136.62 195.708 1130.91 200.443 1123.81 203.924C1116.71 207.406 1108.22 209.147 1098.34 209.147Z" fill="white"/>
<path d="M1204.19 209.147C1196.81 209.147 1190.2 207.893 1184.35 205.387C1178.5 202.741 1173.84 198.981 1170.36 194.107C1167.02 189.093 1165.35 183.036 1165.35 175.933C1165.35 168.831 1167.02 162.913 1170.36 158.178C1173.84 153.304 1178.57 149.683 1184.56 147.316C1190.68 144.809 1197.65 143.556 1205.44 143.556H1233.84V137.707C1233.84 132.833 1232.31 128.864 1229.24 125.8C1226.18 122.597 1221.31 120.996 1214.63 120.996C1208.09 120.996 1203.21 122.527 1200.01 125.591C1196.81 128.516 1194.72 132.345 1193.75 137.08L1169.53 128.933C1171.2 123.641 1173.84 118.837 1177.46 114.52C1181.22 110.064 1186.16 106.513 1192.29 103.867C1198.55 101.081 1206.14 99.6889 1215.05 99.6889C1228.69 99.6889 1239.48 103.101 1247.41 109.924C1255.35 116.748 1259.31 126.636 1259.31 139.587V178.231C1259.31 182.409 1261.26 184.498 1265.16 184.498H1273.51V206.222H1255.97C1250.82 206.222 1246.58 204.969 1243.23 202.462C1239.89 199.956 1238.22 196.613 1238.22 192.436V192.227H1234.26C1233.7 193.898 1232.45 196.126 1230.5 198.911C1228.55 201.557 1225.49 203.924 1221.31 206.013C1217.13 208.102 1211.43 209.147 1204.19 209.147ZM1208.78 187.84C1216.16 187.84 1222.15 185.821 1226.74 181.782C1231.47 177.604 1233.84 172.104 1233.84 165.28V163.191H1207.32C1202.45 163.191 1198.62 164.236 1195.84 166.324C1193.05 168.413 1191.66 171.338 1191.66 175.098C1191.66 178.858 1193.12 181.921 1196.04 184.289C1198.97 186.656 1203.21 187.84 1208.78 187.84Z" fill="white"/>
<path d="M1292.75 248V102.613H1318.64V115.147H1322.4C1324.77 111.108 1328.45 107.557 1333.47 104.493C1338.48 101.29 1345.65 99.6889 1354.97 99.6889C1363.33 99.6889 1371.05 101.778 1378.15 105.956C1385.25 109.994 1390.96 115.982 1395.27 123.92C1399.59 131.858 1401.75 141.467 1401.75 152.747V156.089C1401.75 167.369 1399.59 176.978 1395.27 184.916C1390.96 192.853 1385.25 198.911 1378.15 203.089C1371.05 207.127 1363.33 209.147 1354.97 209.147C1348.71 209.147 1343.42 208.381 1339.1 206.849C1334.93 205.456 1331.52 203.646 1328.87 201.418C1326.37 199.05 1324.35 196.683 1322.82 194.316H1319.06V248H1292.75ZM1347.04 186.169C1355.25 186.169 1362 183.593 1367.29 178.44C1372.72 173.148 1375.44 165.489 1375.44 155.462V153.373C1375.44 143.347 1372.72 135.757 1367.29 130.604C1361.86 125.313 1355.11 122.667 1347.04 122.667C1338.96 122.667 1332.21 125.313 1326.78 130.604C1321.36 135.757 1318.64 143.347 1318.64 153.373V155.462C1318.64 165.489 1321.36 173.148 1326.78 178.44C1332.21 183.593 1338.96 186.169 1347.04 186.169Z" fill="white"/>
<path d="M1473.09 209.147C1462.79 209.147 1453.68 206.988 1445.74 202.671C1437.95 198.215 1431.82 192.018 1427.37 184.08C1423.05 176.003 1420.89 166.533 1420.89 155.671V153.164C1420.89 142.302 1423.05 132.902 1427.37 124.964C1431.68 116.887 1437.74 110.69 1445.53 106.373C1453.33 101.917 1462.38 99.6889 1472.68 99.6889C1482.84 99.6889 1491.68 101.987 1499.2 106.582C1506.71 111.039 1512.56 117.305 1516.74 125.382C1520.91 133.32 1523 142.581 1523 153.164V162.147H1447.62C1447.9 169.249 1450.54 175.028 1455.56 179.484C1460.57 183.941 1466.69 186.169 1473.93 186.169C1481.31 186.169 1486.74 184.567 1490.22 181.364C1493.7 178.161 1496.34 174.61 1498.15 170.711L1519.66 181.991C1517.71 185.612 1514.86 189.581 1511.1 193.898C1507.48 198.076 1502.61 201.696 1496.48 204.76C1490.36 207.684 1482.56 209.147 1473.09 209.147ZM1447.83 142.511H1496.27C1495.72 136.523 1493.28 131.719 1488.96 128.098C1484.79 124.477 1479.29 122.667 1472.47 122.667C1465.37 122.667 1459.73 124.477 1455.56 128.098C1451.38 131.719 1448.8 136.523 1447.83 142.511Z" fill="white"/>
</svg>
