<?xml version="1.0" standalone="no"?>
<!DOCTYPE svg PUBLIC "-//W3C//DTD SVG 20010904//EN"
 "http://www.w3.org/TR/2001/REC-SVG-20010904/DTD/svg10.dtd">
<svg version="1.0" xmlns="http://www.w3.org/2000/svg"
 width="2000.000000pt" height="2000.000000pt" viewBox="0 0 2000.000000 2000.000000"
 preserveAspectRatio="xMidYMid meet">

<g transform="translate(0.000000,2000.000000) scale(0.100000,-0.100000)"
fill="#000000" stroke="none">
<path d="M1975 11648 c-66 -39 -160 -94 -210 -123 -49 -28 -162 -94 -250 -145
-88 -51 -218 -126 -290 -167 -71 -41 -155 -90 -185 -108 -30 -18 -146 -86
-258 -150 l-202 -117 2 -900 3 -901 90 -52 c50 -28 117 -67 150 -85 33 -18
110 -61 170 -95 61 -35 133 -75 160 -91 28 -15 88 -49 134 -76 46 -26 86 -48
88 -48 2 0 29 -16 59 -35 30 -19 57 -35 59 -35 3 0 60 -31 126 -70 66 -38 122
-70 124 -70 2 0 81 -45 176 -100 96 -55 179 -100 184 -100 6 0 172 92 370 205
197 113 359 205 361 205 1 0 35 19 76 43 40 24 98 57 128 74 30 16 98 54 150
84 52 30 170 97 262 149 l168 95 -3 904 -2 904 -170 100 c-93 54 -237 139
-320 187 -82 48 -168 98 -190 110 -22 12 -103 59 -180 104 -77 45 -216 127
-310 181 -93 54 -206 120 -250 147 -44 26 -85 48 -90 47 -6 0 -64 -33 -130
-71z m221 -289 c49 -28 141 -82 204 -119 63 -37 138 -81 166 -96 225 -127 634
-371 634 -379 0 -5 -42 -32 -92 -60 -138 -75 -226 -123 -406 -223 l-163 -91
-197 123 c-108 68 -206 128 -217 133 -17 10 -53 -9 -243 -122 l-223 -133 -152
85 c-84 47 -174 98 -202 113 -48 26 -69 37 -218 121 -38 22 -73 39 -78 39 -5
0 -9 4 -9 10 0 10 7 15 115 77 39 22 108 63 155 90 47 27 162 94 255 148 94
54 222 129 285 166 63 37 138 79 165 94 28 16 66 38 85 51 19 13 38 23 41 23
3 1 46 -22 95 -50z m-1046 -991 c327 -182 323 -179 353 -200 l27 -19 0 -242 0
-242 220 -110 220 -110 0 -437 c0 -276 -4 -438 -10 -438 -5 0 -47 22 -92 49
-46 27 -119 69 -163 93 -140 78 -178 99 -280 158 -136 78 -400 228 -455 258
-25 14 -62 36 -82 49 l-38 23 0 658 c0 362 3 662 7 665 3 4 20 -2 37 -12 17
-10 132 -75 256 -143z m2200 -507 l0 -670 -92 -52 c-51 -29 -109 -61 -128 -72
-19 -11 -69 -39 -110 -62 -41 -23 -93 -53 -115 -65 -78 -44 -192 -109 -339
-194 -82 -47 -149 -86 -151 -86 -1 0 -37 -20 -81 -45 -43 -25 -82 -45 -86 -45
-5 0 -8 197 -8 438 l0 437 203 104 c111 57 208 108 215 114 9 7 12 70 12 254
0 223 1 244 18 250 9 4 47 24 84 45 154 87 136 77 318 176 41 22 116 63 165
91 50 28 91 51 93 51 1 0 2 -301 2 -669z m-1087 388 l136 -84 3 -160 c2 -133
0 -163 -12 -175 -9 -9 -76 -46 -151 -84 l-136 -68 -149 75 -149 75 -2 168 -3
169 148 88 c81 48 154 86 163 83 9 -2 77 -41 152 -87z"/>
<path d="M5380 10835 l0 -145 258 -2 257 -3 3 -742 2 -743 160 0 160 0 0 733
c0 557 3 736 12 745 9 9 82 12 265 12 l253 0 0 145 0 145 -685 0 -685 0 0
-145z"/>
<path d="M7002 10093 l3 -888 152 -3 152 -3 3 378 c4 374 4 379 28 442 45 117
142 189 266 199 125 10 229 -42 276 -135 23 -47 23 -53 28 -463 l5 -415 153
-3 153 -3 -3 443 c-4 482 -5 488 -65 596 -40 72 -73 109 -136 153 -94 67 -152
83 -292 83 -166 0 -263 -38 -323 -124 -27 -39 -61 -58 -81 -45 -8 4 -11 116
-11 341 l0 334 -155 0 -155 0 2 -887z"/>
<path d="M10710 10090 l0 -890 575 0 576 0 -3 148 -3 147 -413 3 -412 2 2 223
3 222 365 5 365 5 0 145 0 145 -367 3 -368 2 0 214 c0 186 2 215 16 220 9 3
191 6 405 6 l389 0 0 145 0 145 -565 0 -565 0 0 -890z"/>
<path d="M15400 10489 c-186 -19 -351 -129 -419 -280 -12 -24 -21 -49 -21 -55
0 -11 231 -94 263 -94 9 0 24 17 35 43 41 92 123 140 237 141 86 1 136 -16
186 -61 44 -40 59 -82 59 -164 l0 -57 -242 -5 c-258 -5 -298 -11 -400 -63
-159 -80 -230 -252 -182 -436 39 -153 160 -252 348 -284 204 -35 369 19 448
148 25 41 35 49 56 46 20 -2 28 -10 32 -33 10 -47 39 -84 84 -108 36 -19 57
-21 186 -22 l145 0 0 125 0 125 -66 3 c-108 5 -103 -13 -109 366 -5 298 -7
325 -27 380 -48 128 -153 222 -298 266 -53 16 -234 27 -315 19z m334 -826 c-1
-51 -7 -72 -30 -110 -33 -54 -105 -107 -167 -124 -57 -16 -153 -16 -205 -1
-113 34 -157 165 -81 242 51 51 94 59 299 57 l185 -2 -1 -62z"/>
<path d="M18595 10492 c-72 -5 -169 -33 -238 -70 -220 -115 -329 -338 -314
-642 10 -194 62 -324 177 -441 74 -76 189 -137 300 -160 80 -17 244 -17 325 1
92 19 204 81 282 156 32 31 112 149 106 155 -12 11 -244 132 -247 127 -36 -57
-96 -123 -129 -142 -24 -14 -73 -30 -114 -36 -185 -29 -356 86 -380 255 l-6
45 463 0 463 0 -6 138 c-5 148 -26 229 -88 337 -32 57 -134 161 -196 199 -91
56 -255 88 -398 78z m210 -296 c86 -40 154 -127 155 -199 l0 -27 -297 2 -298
3 3 29 c8 75 89 169 170 198 74 26 205 24 267 -6z"/>
<path d="M8970 10474 c-146 -38 -255 -114 -335 -234 -86 -127 -123 -294 -110
-480 12 -157 52 -269 131 -370 58 -74 119 -122 209 -165 92 -43 178 -60 300
-59 143 1 224 21 325 81 70 41 117 85 181 169 48 64 50 69 33 81 -26 19 -235
125 -238 121 -2 -1 -9 -14 -15 -26 -21 -40 -83 -103 -121 -122 -121 -62 -292
-40 -395 51 -44 39 -95 139 -95 187 l0 32 461 0 462 0 -5 133 c-9 213 -61 340
-193 465 -119 114 -228 153 -421 151 -68 0 -143 -7 -174 -15z m328 -285 c36
-17 74 -46 92 -69 33 -42 63 -117 56 -137 -4 -11 -65 -13 -303 -11 l-298 3 3
29 c8 71 81 159 162 195 34 15 68 20 136 20 82 1 97 -2 152 -30z"/>
<path d="M12404 10471 c-122 -35 -208 -101 -256 -199 -31 -62 -33 -74 -32
-162 0 -120 19 -165 101 -241 80 -74 189 -119 373 -154 197 -37 255 -61 283
-116 53 -107 -61 -197 -237 -187 -143 8 -234 68 -271 177 -9 28 -22 51 -28 51
-7 0 -46 -10 -87 -21 -41 -12 -97 -26 -125 -33 l-50 -12 2 -39 c4 -56 46 -135
105 -200 169 -185 578 -229 819 -88 115 67 171 165 177 307 5 102 -5 143 -49
209 -65 99 -203 160 -479 212 -192 36 -240 67 -240 151 0 78 95 130 220 122
106 -8 183 -60 210 -143 9 -28 15 -33 28 -27 9 5 70 24 136 43 68 19 121 40
124 48 10 26 -49 120 -113 180 -66 61 -144 104 -230 127 -73 20 -303 17 -381
-5z"/>
<path d="M13873 10470 c-113 -31 -192 -77 -274 -159 -124 -124 -179 -270 -179
-473 0 -218 55 -370 176 -492 258 -257 773 -238 979 37 60 78 124 208 125 249
0 8 -33 18 -179 53 -124 30 -121 30 -121 8 0 -40 -58 -140 -105 -181 -59 -52
-105 -66 -220 -66 -75 0 -99 4 -145 25 -99 46 -153 108 -185 215 -20 65 -19
221 1 290 42 146 177 244 336 244 146 0 263 -84 300 -215 6 -22 14 -43 17 -47
3 -4 58 4 121 18 63 14 130 27 148 31 17 3 32 6 32 7 -2 19 -37 111 -61 163
-45 92 -159 207 -249 250 -104 50 -171 63 -321 62 -94 -1 -153 -6 -196 -19z"/>
<path d="M17046 10473 c-66 -20 -144 -71 -188 -122 -25 -29 -43 -41 -61 -41
-27 0 -27 1 -27 75 l0 75 -150 0 -150 0 0 -885 0 -885 155 0 156 0 -1 320 c-1
176 1 324 5 330 13 21 39 8 86 -43 133 -146 389 -176 606 -71 133 64 231 186
288 359 25 76 32 316 12 430 -40 226 -189 397 -402 460 -67 20 -263 19 -329
-2z m204 -268 c96 -34 180 -120 213 -219 23 -66 23 -228 1 -304 -40 -136 -131
-215 -281 -242 -34 -6 -74 -8 -90 -5 -153 32 -226 80 -281 184 -41 78 -53 228
-27 338 27 115 108 210 211 247 54 19 201 20 254 1z"/>
</g>
</svg>
