<svg width="73" height="73" viewBox="0 0 73 73" fill="none" xmlns="http://www.w3.org/2000/svg">
<path d="M36.5 0C16.3337 0 0 16.3337 0 36.5C0 56.6663 16.3337 73 36.5 73C56.6663 73 73 56.6663 73 36.5C73 16.3337 56.6663 0 36.5 0ZM36.5 9.125C39.5112 9.125 42.34 9.94625 45.0775 10.8588C43.1613 12.6838 40.9713 14.3263 41.3363 15.9688C41.7013 17.6112 47.6325 17.155 47.6325 20.5312C47.6325 22.995 43.8 23.725 46.4463 26.5538C49.64 29.7475 40.6062 35.4963 40.4237 39.6937C40.15 47.2675 48.0887 48.545 54.385 48.545C58.2175 48.545 59.2212 50.37 58.9475 52.56C54.02 59.5863 45.625 63.9663 36.4087 63.9663C32.9412 63.9663 29.7475 63.145 26.7362 61.9587C28.7438 57.9437 24.1813 50.005 19.8925 47.45C17.7938 45.3512 13.3225 46.1725 10.7675 45.1687C9.94625 42.705 9.125 40.2413 9.03375 37.5037C9.3075 37.0475 9.76375 36.6825 10.4937 36.6825C12.2275 36.6825 14.6 40.15 15.8775 39.785C17.52 39.42 9.125 27.8312 13.0487 25.55C14.8737 24.455 18.5238 29.1088 17.3375 24.09C16.2425 19.4363 20.6225 21.535 23.36 20.3488C25.7325 19.345 27.4663 16.6075 24.5463 14.965C23.9988 14.6912 23.36 14.0525 22.5387 13.2313C26.645 10.7675 31.39 9.21625 36.5 9.21625V9.125ZM57.5788 19.0712C59.2212 21.0787 60.4987 23.2687 61.5938 25.6412V25.915C61.2287 26.5537 60.59 26.9187 59.5863 27.9225C57.0312 30.4775 56.6663 26.0063 55.5713 25.0938C54.385 23.9988 50.0962 25.2762 49.5487 23.9075C48.91 22.265 54.1112 20.075 57.5788 19.0712Z" fill="#E3E3E3"/>
</svg>
