<svg width="62" height="49" viewBox="0 0 62 49" fill="none" xmlns="http://www.w3.org/2000/svg">
<path d="M23.2475 0.5C27.5483 1.45754 33.6678 3.29898 37.0593 4.42838C45.6117 7.27647 48.6345 10.9348 48.6345 19.1598C48.6345 25.1505 45.8329 28.3178 41.7286 28.3178C40.3524 28.3178 38.8286 27.9249 37.2313 27.1885V12.2606C37.2313 10.5665 37.0593 9.06877 35.3881 8.52863C34.0117 8.08668 33.3236 9.28975 33.3236 10.9348V48.4263L23.2475 45.259V0.5ZM35.1914 41.9198V47.6651L55.786 40.3485C58.8581 39.2437 60.7751 38.1879 61.4877 37.2303C62.6182 35.7572 62.1021 33.4494 57.6539 31.9025C53.0827 30.3557 47.6761 29.8156 43.3753 30.1592C40.7211 30.3802 37.5261 31.2151 35.1914 32.0008V38.1879L46.0294 34.2596C47.848 33.5967 50.4038 33.5474 51.9767 34.063C53.4759 34.5787 53.3285 35.4136 51.4115 36.101L35.1914 41.9198ZM3.70966 40.8641C8.25621 42.4847 14.0561 43.7859 21.2078 42.2636V37.0585L16.44 38.8016C14.4739 39.5383 11.3036 39.661 10.1977 39.2682C8.62485 38.7526 8.94435 37.7214 11.0333 36.9602L21.2078 33.3266V27.5568L7.24859 32.59C5.35626 33.3019 3.4885 33.8175 1.32581 35.2908C-1.03348 36.8867 -0.247052 39.4647 3.70966 40.8641Z" fill="#E3E3E3" fill-opacity="0.85"/>
</svg>
