<svg width="52" height="53" viewBox="0 0 52 53" fill="none" xmlns="http://www.w3.org/2000/svg">
<path d="M26 0.5C29.4144 0.5 32.7953 1.17251 35.9498 2.47913C39.1042 3.78575 41.9705 5.7009 44.3848 8.11522C46.7991 10.5295 48.7142 13.3958 50.0209 16.5502C51.3275 19.7047 52 23.0856 52 26.5C52 33.3956 49.2607 40.0088 44.3848 44.8848C39.5088 49.7607 32.8956 52.5 26 52.5C14.04 52.5 4.03 44.492 0.936 33.598L10.894 37.706C11.57 41.06 14.56 43.608 18.122 43.608C22.178 43.608 25.48 40.306 25.48 36.25V35.912L34.32 29.594H34.528C39.936 29.594 44.33 25.2 44.33 19.792C44.33 14.384 39.936 9.99 34.528 9.99C29.12 9.99 24.7 14.384 24.7 19.792V19.922L18.538 28.918L18.122 28.892C16.588 28.892 15.158 29.36 13.988 30.166L0 24.42C1.118 11.03 12.298 0.5 26 0.5ZM16.328 39.942C18.408 40.8 20.8 39.838 21.658 37.758C22.516 35.678 21.528 33.312 19.5 32.454L16.172 31.076C17.446 30.608 18.876 30.582 20.228 31.154C21.606 31.7 22.672 32.766 23.218 34.144C23.79 35.496 23.79 37.004 23.218 38.356C22.1 41.164 18.798 42.516 15.99 41.346C14.69 40.8 13.702 39.812 13.156 38.642L16.328 39.942ZM41.08 19.792C41.08 23.406 38.142 26.344 34.528 26.344C30.94 26.344 28.002 23.406 28.002 19.792C27.9986 18.934 28.165 18.0839 28.4918 17.2905C28.8185 16.4972 29.2991 15.7764 29.9058 15.1698C30.5124 14.5631 31.2332 14.0825 32.0265 13.7558C32.8199 13.429 33.67 13.2626 34.528 13.266C38.142 13.266 41.08 16.204 41.08 19.792ZM29.64 19.792C29.64 22.496 31.824 24.706 34.554 24.706C37.258 24.706 39.442 22.496 39.442 19.792C39.442 17.088 37.258 14.878 34.554 14.878C31.824 14.878 29.64 17.088 29.64 19.792Z" fill="#E3E3E3"/>
</svg>
