<svg width="50" height="51" viewBox="0 0 50 51" fill="none" xmlns="http://www.w3.org/2000/svg">
<path d="M9.8408 26.2005C12.5663 21.7518 15.0506 17.9668 18.1138 14.1817C18.1621 14.1325 18.1621 14.0342 18.1138 13.9605C16.6908 12.5349 15.3883 11.306 14.2788 10.4212C12.6146 9.11856 10.1543 7.20144 8.20068 7.20144C7.79064 7.20144 7.57356 7.2506 7.45295 7.37349C5.20983 9.61012 3.30439 12.4858 2.00193 15.5089C0.675349 18.7778 0 22.0222 0 25.4876C0 31.1408 1.68837 36.2777 5.08924 40.8983C5.13747 40.9721 5.25808 40.9229 5.23396 40.8245C5.11337 40.4805 5.041 39.8415 5.041 39.2762C5.041 37.9981 5.25808 36.6216 5.66811 35.3437C6.87408 31.7797 8.15243 28.9287 9.8408 26.2005ZM31.8861 14.1817C34.9494 17.9668 37.4336 21.7518 40.135 26.2005C41.8474 28.9287 43.1258 31.7797 44.3319 35.3437C44.7419 36.6216 44.959 37.9981 44.959 39.2762C44.959 39.8415 44.8866 40.4805 44.766 40.8245C44.7419 40.9229 44.8625 40.9721 44.9107 40.8983C48.3117 36.2777 50 31.1408 50 25.4876C50 22.0222 49.3245 18.7778 47.998 15.5089C46.6955 12.4858 44.7901 9.61012 42.547 7.37349C42.4264 7.2506 42.2093 7.20144 41.7993 7.20144C39.8456 7.20144 37.3855 9.11856 35.7212 10.4212C34.6116 11.306 33.3092 12.5349 31.8861 13.9605C31.838 14.0342 31.838 14.1325 31.8861 14.1817ZM12.0598 3.68674C11.9392 3.7359 11.9874 3.93253 12.1322 3.90795C12.6146 3.80965 13.2176 3.7359 13.7964 3.7359C15.8948 3.7359 17.8485 4.3012 20.3087 5.28434C21.3699 5.67759 22.2624 6.09542 23.1307 6.56242C23.8785 6.95567 24.4813 7.29976 24.8191 7.47181C24.9397 7.54555 25.0603 7.54555 25.1809 7.47181C25.5185 7.29976 26.0974 6.95567 26.8693 6.56242C27.7376 6.09542 28.6301 5.67759 29.6672 5.28434C32.1514 4.3012 34.1051 3.7359 36.2034 3.7359C36.7824 3.7359 37.3855 3.80965 37.8677 3.90795C38.0126 3.93253 38.0608 3.7359 37.9401 3.68674C36.0106 2.55615 34.0569 1.64675 31.9584 1.05687C29.836 0.344095 27.5205 0 24.9879 0C22.4795 0 20.164 0.344095 18.0415 1.05687C15.943 1.64675 13.9653 2.55615 12.0598 3.68674ZM7.79064 42.6433C7.79064 43.4298 8.03182 44.0443 8.92426 44.9047C12.7352 48.5176 18.7892 50.9509 24.9879 50.9509C31.2108 50.9509 37.2408 48.5176 41.0756 44.9047C41.9681 44.0443 42.2093 43.4298 42.2093 42.6433C42.2093 41.7094 41.9199 40.628 41.3409 39.4482C40.2075 36.8183 38.0848 33.7952 36.0828 31.3864C32.658 27.3557 28.9676 23.4477 25.2772 20.6458C25.1568 20.5475 25.0844 20.4983 24.9879 20.4983C24.9156 20.4983 24.8432 20.5475 24.7226 20.6458C21.0324 23.4477 17.342 27.3557 13.917 31.3864C11.9151 33.7952 9.79255 36.8183 8.65893 39.4482C8.05594 40.628 7.79064 41.7094 7.79064 42.6433Z" fill="#E3E3E3" fill-opacity="0.85"/>
</svg>
